{"title":"The Amazing Spider-Man 2 (2014) 720p Blu-Ray x264 [Dual-Audio][E","uid":10876194,"size":1412533888,"categoryP":"video","categoryS":"hd___movies","magnet":"?xt=urn:btih:f39652a82e9d366bfdbd569796c390f94a9039bc&amp;dn=The+Amazing+Spider-Man+2+%282014%29+720p+Blu-Ray+x264+%5BDual-Audio%5D%5BE&amp;tr=udp%3A%2F%2Ftracker.openbittorrent.com%3A80&amp;tr=udp%3A%2F%2Fopen.demonii.com%3A1337&amp;tr=udp%3A%2F%2Ftracker.coppersurfer.tk%3A6969&amp;tr=udp%3A%2F%2Fexodus.desync.com%3A6969","seeders":28,"leechers":22,"uploader":"inovai","files":3,"time":1408993561,"description":"The Amazing Spider-Man 2 (2014) 720p Blu-Ray x264 [Dual-Audio][English DD 5.1 + Hindi DD 5.1(Blu-Ray Audio)] - Mafiaking - TeamTNT\n\nCover:\n &lt;a href=&quot;\nhttp://forum.primetimeshow.in/viewtopic.php?f=7&amp;t=409&quot; rel=&quot;nofollow&quot; target=&quot;_NEW&quot;&gt;\nhttp://forum.primetimeshow.in/viewtopic.php?f=7&amp;t=409&lt;/a&gt;\n\nGENRE: Action | Adventure | Fantasy\n\nScreenshots:\n &lt;a href=&quot;\nhttp://img.primetimeshow.in/share.php?id=F431_53FB6BD8&quot; rel=&quot;nofollow&quot; target=&quot;_NEW&quot;&gt;\nhttp://img.primetimeshow.in/share.php?id=F431_53FB6BD8&lt;/a&gt;\n &lt;a href=&quot;\nhttp://img.primetimeshow.in/share.php?id=4B3C_53FB6BD8&quot; rel=&quot;nofollow&quot; target=&quot;_NEW&quot;&gt;\nhttp://img.primetimeshow.in/share.php?id=4B3C_53FB6BD8&lt;/a&gt;\n &lt;a href=&quot;\nhttp://img.primetimeshow.in/share.php?id=51FC_53FB6BD8&quot; rel=&quot;nofollow&quot; target=&quot;_NEW&quot;&gt;\nhttp://img.primetimeshow.in/share.php?id=51FC_53FB6BD8&lt;/a&gt;\n &lt;a href=&quot;\nhttp://img.primetimeshow.in/share.php?id=CF99_53FB6BD8&quot; rel=&quot;nofollow&quot; target=&quot;_NEW&quot;&gt;\nhttp://img.primetimeshow.in/share.php?id=CF99_53FB6BD8&lt;/a&gt;\n &lt;a href=&quot;\nhttp://img.primetimeshow.in/share.php?id=A04B_53FB6BD8&quot; rel=&quot;nofollow&quot; target=&quot;_NEW&quot;&gt;\nhttp://img.primetimeshow.in/share.php?id=A04B_53FB6BD8&lt;/a&gt;\n\nGeneral Info:\n\nUnique ID : 205173730487677057245325999638366497683 (0x9A5B05EC294A848DADABF1C40311AB93)\nComplete name : The Amazing Spider-Man 2 (2014) 720p Blu-Ray x264 [Dual-Audio][English DD 5.1 + Hindi DD 5.1(Blu-Ray Audio)] - Mafiaking - TeamTNT.mkv\nFormat : Matroska\nFormat version : Version 4 / Version 2\nFile size : 1.30 GiB\nDuration : 2h 21mn\nOverall bit rate : 1 318 Kbps\nMovie name : The Amazing Spider-Man 2 (2014) 720p Blu-Ray x264 [Dual-Audio][English DD 5.1 + Hindi DD 5.1(Blu-Ray Audio)] - Mafiaking - TeamTNT\nEncoded date : UTC 2014-08-24 13:45:27\nWriting application : mkvmerge v7.0.0 ('Where We Going') 32bit built on Jun 9 2014 15:08:34\nWriting library : libebml v1.3.0 + libmatroska v1.4.1\n\n\nVideo\nID : 1\nFormat : AVC\nFormat/Info : Advanced Video Codec\nFormat profile : &lt;a class=&quot;__cf_email__&quot; href=&quot;/cdn-cgi/l/email-protection&quot; data-cfemail=&quot;fcb4959b94bcb0cfd2cd&quot;&gt;[email&amp;#160;protected]&lt;/a&gt;&lt;script cf-hash='f9e31' type=&quot;text/javascript&quot;&gt;\n/* &lt;![CDATA[ */!function(){try{var t=&quot;currentScript&quot;in document?document.currentScript:function(){for(var t=document.getElementsByTagName(&quot;script&quot;),e=t.length;e--;)if(t[e].getAttribute(&quot;cf-hash&quot;))return t[e]}();if(t&amp;&amp;t.previousSibling){var e,r,n,i,c=t.previousSibling,a=c.getAttribute(&quot;data-cfemail&quot;);if(a){for(e=&quot;&quot;,r=parseInt(a.substr(0,2),16),n=2;a.length-n;n+=2)i=parseInt(a.substr(n,2),16)^r,e+=String.fromCharCode(i);e=document.createTextNode(e),c.parentNode.replaceChild(e,c)}}}catch(u){}}();/* ]]&gt; */&lt;/script&gt;\nFormat settings, CABAC : Yes\nFormat settings, ReFrames : 4 frames\nCodec ID : V_MPEG4/ISO/AVC\nDuration : 2h 21mn\nBit rate : 900 Kbps\nWidth : 1 280 pixels\nHeight : 532 pixels\nDisplay aspect ratio : 2.40:1\nFrame rate mode : Constant\nFrame rate : 23.976 fps\nColor space : YUV\nChroma subsampling : 4:2:0\nBit depth : 8 bits\nScan type : Progressive\nBits/(Pixel*Frame) : 0.055\nStream size : 887 MiB (66%)\nTitle : Mafiaking@TeamTNT\nLanguage : English\nDefault : Yes\nForced : No\n\n\nAudio #1\nID : 2\nFormat : AC-3\nFormat/Info : Audio Coding 3\nMode extension : CM (complete main)\nFormat settings, Endianness : Big\nCodec ID : A_AC3\nDuration : 2h 21mn\nBit rate mode : Constant\nBit rate : 224 Kbps\nChannel(s) : 6 channels\nChannel positions : Front: L C R, Side: L R, LFE\nSampling rate : 48.0 KHz\nBit depth : 16 bits\nCompression mode : Lossy\nStream size : 227 MiB (17%)\nTitle : Mafiaking@TeamTNT\nLanguage : Hindi\nDefault : Yes\nForced : No\n\n\nAudio #2\nID : 3\nFormat : AC-3\nFormat/Info : Audio Coding 3\nMode extension : CM (complete main)\nFormat settings, Endianness : Big\nCodec ID : A_AC3\nDuration : 2h 21mn\nBit rate mode : Constant\nBit rate : 192 Kbps\nChannel(s) : 6 channels\nChannel positions : Front: L C R, Side: L R, LFE\nSampling rate : 48.0 KHz\nBit depth : 16 bits\nCompression mode : Lossy\nStream size : 194 MiB (15%)\nTitle : Mafiaking@TeamTNT\nLanguage : English\nDefault : No\nForced : No\n\nSAMPLE WITH IN TORRENT\n\n\nSpecial Thanks To Hi-Man Team HDDR For Audio!\n\nTHanks to Mafiaking &amp; TeamTNT!!","torrent":{"xt":"urn:btih:f39652a82e9d366bfdbd569796c390f94a9039bc","amp;dn":"The+Amazing+Spider-Man+2+%282014%29+720p+Blu-Ray+x264+%5BDual-Audio%5D%5BE","amp;tr":["udp%3A%2F%2Ftracker.openbittorrent.com%3A80","udp%3A%2F%2Fopen.demonii.com%3A1337","udp%3A%2F%2Ftracker.coppersurfer.tk%3A6969","udp%3A%2F%2Fexodus.desync.com%3A6969"],"infoHash":"f39652a82e9d366bfdbd569796c390f94a9039bc","infoHashBuffer":{"type":"Buffer","data":[243,150,82,168,46,157,54,107,253,189,86,151,150,195,144,249,74,144,57,188]},"announce":[],"urlList":[]}}